<svg class="animated" id="freepik_stories-exciting-news" xmlns="http://www.w3.org/2000/svg" viewBox="0 0 500 500" version="1.1" xmlns:xlink="http://www.w3.org/1999/xlink" xmlns:svgjs="http://svgjs.com/svgjs"><style>svg#freepik_stories-exciting-news:not(.animated) .animable {opacity: 0;}svg#freepik_stories-exciting-news.animated #freepik--background-simple--inject-2 {animation: 6s Infinite  linear shake;animation-delay: 0s;}svg#freepik_stories-exciting-news.animated #freepik--Arrows--inject-2 {animation: 6s Infinite  linear heartbeat;animation-delay: 0s;}svg#freepik_stories-exciting-news.animated #freepik--Text--inject-2 {animation: 6s Infinite  linear heartbeat;animation-delay: 0s;}            @keyframes shake {                10%, 90% {                    transform: translate3d(-1px, 0, 0);                  }                  20%, 80% {                    transform: translate3d(2px, 0, 0);                  }                  30%, 50%, 70% {                    transform: translate3d(-4px, 0, 0);                  }                  40%, 60% {                    transform: translate3d(4px, 0, 0);                  }            }                    @keyframes heartbeat {                0% {                    transform: scale(1);                }                10% {                    transform: scale(1.1);                }                30% {                    transform: scale(1);                }                40% {                    transform: scale(1);                }                50% {                    transform: scale(1.1);                }                60% {                    transform: scale(1);                }                100% {                    transform: scale(1);                }            }        </style><g id="freepik--background-simple--inject-2" class="animable animator-active" style="transform-origin: 257.406px 243.128px;"><path d="M455.61,325.49c30.63-86.8-8.21-182.83-89.69-225.64A870.7,870.7,0,0,0,252.23,50C134.27,8.22,47.46,135.46,48.78,230.89S99.15,434.33,219.76,443s200.13-21.21,234.59-114C454.78,327.8,455.2,326.65,455.61,325.49Z" style="fill: #407BFF; transform-origin: 257.406px 243.128px;" id="elcd4hpmiw05h" class="animable"></path><g id="elhzhdhcgyoo"><path d="M455.61,325.49c30.63-86.8-8.21-182.83-89.69-225.64A870.7,870.7,0,0,0,252.23,50C134.27,8.22,47.46,135.46,48.78,230.89S99.15,434.33,219.76,443s200.13-21.21,234.59-114C454.78,327.8,455.2,326.65,455.61,325.49Z" style="fill: rgb(255, 255, 255); opacity: 0.7; transform-origin: 257.406px 243.128px;" class="animable" id="el4s8l4liiwgs"></path></g></g><g id="freepik--plant-2--inject-2" class="animable" style="transform-origin: 419.593px 380.357px;"><path d="M429,347.43h0a.1.1,0,0,0-.05-.13.12.12,0,0,0-.14.06A131.25,131.25,0,0,0,421.9,369a198.49,198.49,0,0,0-3.82,22.49l-.54,5.68c-.09,1-.19,1.89-.26,2.84l-.15,2.86c-.09,1.9-.2,3.8-.26,5.7l.06,5.72.06,2.85c0,.95.11,1.9.17,2.85.15,1.9.26,3.8.44,5.69.36,3.79.93,7.56,1.52,11.31a.1.1,0,0,0,.1.08.11.11,0,0,0,.1-.1h0c0-1.9-.09-3.79-.14-5.69s-.22-3.78-.19-5.67,0-3.78-.06-5.67l-.05-2.83.05-2.83,0-5.66.15-5.66.06-2.83c0-.94.11-1.88.16-2.83l.35-5.65a202.16,202.16,0,0,1,3.2-22.43A132.15,132.15,0,0,1,429,347.43Z" style="fill: rgb(38, 50, 56); transform-origin: 422.939px 392.183px;" id="ele4wkxv8fxyb" class="animable"></path><path d="M429.81,377a.11.11,0,0,0-.06-.13.1.1,0,0,0-.13.06,135.07,135.07,0,0,0-4,14.38,133.59,133.59,0,0,0-2.38,14.77c-.5,4.95-1.06,9.91-1.12,14.89a122.24,122.24,0,0,0,.53,14.94.11.11,0,0,0,.08.09.12.12,0,0,0,.12-.09c.57-5,.92-9.91,1.26-14.85s.4-9.9.73-14.84a130.46,130.46,0,0,1,1.76-14.72A133.12,133.12,0,0,1,429.81,377Z" style="fill: rgb(38, 50, 56); transform-origin: 425.947px 406.432px;" id="elmfbadjrrzw" class="animable"></path><path d="M446.22,387.44a.1.1,0,0,0-.14,0,50,50,0,0,0-11,9.56,42.41,42.41,0,0,0-4.29,6l-.88,1.66-.69,1.73a15.77,15.77,0,0,0-.61,1.75c-.17.59-.37,1.18-.53,1.77a70.66,70.66,0,0,0-2.27,14.47,83.55,83.55,0,0,0,.54,14.58.11.11,0,0,0,.1.09.1.1,0,0,0,.1-.09l1.25-14.43a129.61,129.61,0,0,1,1.83-14.23c.13-.58.3-1.15.45-1.73a14.39,14.39,0,0,1,.5-1.7l.59-1.66.75-1.58a43,43,0,0,1,3.93-6,49.43,49.43,0,0,1,10.3-10h0A.1.1,0,0,0,446.22,387.44Z" style="fill: rgb(38, 50, 56); transform-origin: 435.995px 413.231px;" id="eli0300o7ydvd" class="animable"></path><path d="M438.28,406a15.85,15.85,0,0,0-5,6,35.35,35.35,0,0,0-2.8,7.35c-.2.63-.35,1.27-.49,1.91l-.45,1.92a31.79,31.79,0,0,0-.48,3.89c0,1.31-.06,2.62,0,3.92a36.49,36.49,0,0,0,.51,3.9.11.11,0,0,0,.08.08.1.1,0,0,0,.12-.08,32.82,32.82,0,0,0,.69-3.83c.21-1.28.4-2.54.56-3.8s.35-2.51.45-3.78.26-2.53.54-3.77a34.18,34.18,0,0,1,2.14-7.28,16,16,0,0,1,4.19-6.25h0a.1.1,0,0,0,0-.13A.09.09,0,0,0,438.28,406Z" style="fill: rgb(38, 50, 56); transform-origin: 433.699px 420.486px;" id="el1gmg4yn0yb7" class="animable"></path><path d="M415.26,420.43c-.54-6.41-1.59-12.75-2.59-19.09s-2.11-12.66-3.27-19-2.45-12.6-3.81-18.86a.1.1,0,1,0-.2,0c1.1,6.31,2.09,12.64,3,19s1.86,12.68,2.66,19,1.4,12.73,2.19,19.07l2.35,19.07a.09.09,0,0,0,.09.09.11.11,0,0,0,.11-.1c.07-1.6.07-3.21.11-4.82s-.06-3.21-.09-4.82C415.78,426.84,415.5,423.64,415.26,420.43Z" style="fill: rgb(38, 50, 56); transform-origin: 410.65px 401.545px;" id="elyvvf8fu8wg9" class="animable"></path><path d="M411.42,420.34c-.34-2.54-.81-5.06-1.29-7.58l-.9-3.74c-.29-1.24-.57-2.49-.94-3.72a105.24,105.24,0,0,0-4.9-14.57l-.76-1.76-.86-1.73c-.54-1.16-1.2-2.27-1.82-3.38a28.27,28.27,0,0,0-4.62-6.13.1.1,0,0,0-.14.14h0a28.29,28.29,0,0,1,4.23,6.27c.55,1.14,1.14,2.26,1.62,3.43l.75,1.75.67,1.78a104.88,104.88,0,0,1,4.27,14.57c.58,2.46,1,5,1.44,7.46l.6,3.75c.22,1.25.49,2.49.66,3.75.4,2.5.86,5,1.3,7.51s.85,5,1.38,7.53a.11.11,0,0,0,.1.08.1.1,0,0,0,.1-.1q0-3.84-.18-7.68C412,425.43,411.69,422.89,411.42,420.34Z" style="fill: rgb(38, 50, 56); transform-origin: 403.74px 406.73px;" id="elgzbiw4i9dec" class="animable"></path><path d="M406.12,420.66c-1.19-3.36-2.56-6.65-4.06-9.87a87.32,87.32,0,0,0-5.1-9.36.11.11,0,0,0-.13,0,.1.1,0,0,0,0,.14,87.1,87.1,0,0,1,4.36,9.65c1.3,3.27,2.47,6.6,3.45,10s1.72,6.82,2.62,10.21,1.7,6.8,2.75,10.23a.11.11,0,0,0,.09.08.1.1,0,0,0,.1-.1,50.8,50.8,0,0,0-1-10.66A66.78,66.78,0,0,0,406.12,420.66Z" style="fill: rgb(38, 50, 56); transform-origin: 403.503px 421.574px;" id="elpcf25d8tc1i" class="animable"></path><path d="M405.9,431.86a23.09,23.09,0,0,0-2.82-5.91,24.35,24.35,0,0,0-4.1-5.1,19,19,0,0,0-2.61-2,10.75,10.75,0,0,0-3-1.34.1.1,0,0,0-.11.06.1.1,0,0,0,0,.13h0a14.79,14.79,0,0,1,4.91,3.82,23.53,23.53,0,0,1,3.43,5.18c1,1.84,1.47,3.87,2.32,5.77.37,1,.74,1.95,1.17,2.92a24.58,24.58,0,0,0,1.29,3h0a.11.11,0,0,0,.09.05.1.1,0,0,0,.1-.1,22.3,22.3,0,0,0-.12-3.27A32,32,0,0,0,405.9,431.86Z" style="fill: rgb(38, 50, 56); transform-origin: 399.911px 427.974px;" id="el3agebkg11n" class="animable"></path><path d="M406.3,372.69A18.22,18.22,0,0,1,393.38,359c-2.42-11.3,5.38-6.46-1.62-24.22s-5.38-21.8-3-26.92,3.77-3.5,5.92,3.23,10,17.23,12.92,36.88S406.3,372.69,406.3,372.69Z" style="fill: #407BFF; transform-origin: 397.676px 338.768px;" id="el5wq5utee9d" class="animable"></path><path d="M427,353.58s-7-2.42-7.27-15.61,5.12-10.5,5.93-26.92,1.88-28,4.84-28.26,10.77,8.08,13.46,26.38-3.5,30.41-8.88,35.8S427,353.58,427,353.58Z" style="fill: #407BFF; transform-origin: 432.165px 318.182px;" id="elb5yuggbm6q" class="animable"></path><path d="M402.53,388.57s-1.62-9.69-4.85-14.27-10.22-8.61-14.8-17.49-9.69-13.19-9.42-.54,5.92,19.11,12.92,23.42S402.53,388.57,402.53,388.57Z" style="fill: #407BFF; transform-origin: 387.99px 368.468px;" id="elcfe77t9fnt6" class="animable"></path><path d="M399.57,405.25s-6.46-12.38-15.88-21.53-17-13.72-14.27-9.15,5.92,4.31,10.5,12.38,3.23,14,9.69,18.57S399.57,405.25,399.57,405.25Z" style="fill: #407BFF; transform-origin: 384.213px 390.13px;" id="el61bkih13fev" class="animable"></path><path d="M398.76,421.13c-.27-.8-.54-6.72-9.69-11.57s-17.76-3-16.69-.54,6.73,6.46,12.39,8.89S398.76,421.13,398.76,421.13Z" style="fill: #407BFF; transform-origin: 385.525px 413.829px;" id="elh1bcpjjpni7" class="animable"></path><path d="M426.48,389.11s-4-5.12-1.88-15.88,7-8.08,12.38-13.73,4.31-6.46,9.69-12.38,10.23-9.15,12.38-6.73-1.08,10-4.31,14.26S446.4,361.11,444,366.5s-1.35,14-7.54,18S426.48,389.11,426.48,389.11Z" style="fill: #407BFF; transform-origin: 441.863px 364.345px;" id="el96twsrzoryo" class="animable"></path><path d="M439.94,392.07s9.69-11,16.69-19.11,9.69-14.27,10-8.88,2.42,9.68-3.23,16.68S439.94,392.07,439.94,392.07Z" style="fill: #407BFF; transform-origin: 453.605px 377.06px;" id="el729y39twx2a" class="animable"></path><path d="M434.83,409.83s-.27-4.31,15.07-14.26,21.8-11.85,20.19-7.81-8.35,8.07-15.61,15.34S434.83,409.83,434.83,409.83Z" style="fill: #407BFF; transform-origin: 452.58px 397.807px;" id="elhbd3zuacxu5" class="animable"></path><path d="M406.94,371.54s-3.6-19.31-7.37-33-6.19-22.07-6.19-22.07" style="fill: none; stroke: rgb(38, 50, 56); stroke-linecap: round; stroke-linejoin: round; transform-origin: 400.16px 344.005px;" id="elkr75z0pvwwb" class="animable"></path><path d="M426.4,353.78s6.54-20.93,8.7-33.58-.27-22.07-1.35-27.72" style="fill: none; stroke: rgb(38, 50, 56); stroke-linecap: round; stroke-linejoin: round; transform-origin: 431.183px 323.13px;" id="elb3jccf2d1w" class="animable"></path><path d="M401.68,388.16A101.93,101.93,0,0,0,391.76,374c-5.92-7-10.49-10.76-13.19-17.49" style="fill: none; stroke: rgb(38, 50, 56); stroke-linecap: round; stroke-linejoin: round; transform-origin: 390.125px 372.335px;" id="ele5uuf0tlmb4" class="animable"></path><path d="M426.48,389.11s2.16-12.92,7.27-19.65,15.34-17.23,19.38-24" style="fill: none; stroke: rgb(38, 50, 56); stroke-linecap: round; stroke-linejoin: round; transform-origin: 439.805px 367.285px;" id="elcr0xnqrwshn" class="animable"></path><path d="M398.13,420.84s-9.06-5.9-15.52-9.13" style="fill: none; stroke: rgb(38, 50, 56); stroke-linecap: round; stroke-linejoin: round; transform-origin: 390.37px 416.275px;" id="elxt2mlai7uco" class="animable"></path><path d="M424.47,477.93H412.62a5.2,5.2,0,0,1-4.8-3.2c-3.87-9.27-14.21-36.05-8-43.64,5.93-7.23,31.48-7.23,37.41,0,6.22,7.59-4.11,34.37-8,43.64A5.2,5.2,0,0,1,424.47,477.93Z" style="fill: rgb(38, 50, 56); stroke: rgb(38, 50, 56); stroke-linecap: round; stroke-linejoin: round; transform-origin: 418.528px 451.799px;" id="elwrckc88jr4q" class="animable"></path></g><g id="freepik--plant-1--inject-2" class="animable" style="transform-origin: 98.4103px 380.357px;"><path d="M89,347.43h0a.11.11,0,0,1,.06-.13.1.1,0,0,1,.13.06A132.24,132.24,0,0,1,96.11,369a203.06,203.06,0,0,1,3.82,22.49l.54,5.68c.08,1,.18,1.89.25,2.84l.16,2.86c.08,1.9.2,3.8.25,5.7l0,5.72-.07,2.85c0,.95-.11,1.9-.17,2.85-.14,1.9-.26,3.8-.43,5.69-.37,3.79-.94,7.56-1.52,11.31a.11.11,0,0,1-.1.08.1.1,0,0,1-.1-.1h0c0-1.9.09-3.79.13-5.69s.22-3.78.19-5.67,0-3.78.07-5.67l0-2.83,0-2.83,0-5.66L98.9,403l-.06-2.83c0-.94-.11-1.88-.16-2.83l-.35-5.65a199.82,199.82,0,0,0-3.2-22.43A131.15,131.15,0,0,0,89,347.43Z" style="fill: rgb(38, 50, 56); transform-origin: 95.0629px 392.182px;" id="elpmcld0ck8o" class="animable"></path><path d="M88.2,377a.1.1,0,0,1,.19-.07,137.42,137.42,0,0,1,4,14.38,131.28,131.28,0,0,1,2.38,14.77c.51,4.95,1.06,9.91,1.13,14.89a126.38,126.38,0,0,1-.53,14.94.12.12,0,0,1-.09.09.1.1,0,0,1-.11-.09c-.58-5-.93-9.91-1.27-14.85s-.4-9.9-.72-14.84a132.83,132.83,0,0,0-1.77-14.72A135.47,135.47,0,0,0,88.2,377Z" style="fill: rgb(38, 50, 56); transform-origin: 92.0647px 406.432px;" id="el7ya65arra7r" class="animable"></path><path d="M71.79,387.44a.1.1,0,0,1,.14,0,50.21,50.21,0,0,1,11,9.56,44.09,44.09,0,0,1,4.29,6l.88,1.66.69,1.73a15.71,15.71,0,0,1,.6,1.75c.18.59.38,1.18.53,1.77a70,70,0,0,1,2.27,14.47,83.55,83.55,0,0,1-.54,14.58c0,.05,0,.09-.09.09a.1.1,0,0,1-.11-.09l-1.25-14.43a127.23,127.23,0,0,0-1.83-14.23c-.13-.58-.3-1.15-.44-1.73a16.62,16.62,0,0,0-.51-1.7l-.58-1.66-.76-1.58a43,43,0,0,0-3.93-6,49.43,49.43,0,0,0-10.3-10h0A.09.09,0,0,1,71.79,387.44Z" style="fill: rgb(38, 50, 56); transform-origin: 82.0082px 413.231px;" id="eloz5drf5b5f" class="animable"></path><path d="M79.73,406a16,16,0,0,1,5,6,35.32,35.32,0,0,1,2.79,7.35c.2.63.35,1.27.49,1.91l.45,1.92a33.89,33.89,0,0,1,.49,3.89c0,1.31,0,2.62,0,3.92a32,32,0,0,1-.51,3.9.11.11,0,0,1-.08.08.1.1,0,0,1-.12-.08A35.06,35.06,0,0,1,87.5,431c-.2-1.28-.4-2.54-.55-3.8s-.35-2.51-.45-3.78-.27-2.53-.55-3.77a34.16,34.16,0,0,0-2.13-7.28,16.27,16.27,0,0,0-4.19-6.25h0a.1.1,0,0,1,0-.13A.1.1,0,0,1,79.73,406Z" style="fill: rgb(38, 50, 56); transform-origin: 84.278px 420.477px;" id="elk56jf8s5k3g" class="animable"></path><path d="M102.74,420.43c.54-6.41,1.6-12.75,2.6-19.09s2.1-12.66,3.26-19,2.46-12.6,3.82-18.86a.1.1,0,0,1,.11-.08.1.1,0,0,1,.08.12q-1.64,9.46-3,19c-1,6.34-1.87,12.68-2.67,19s-1.39,12.73-2.19,19.07l-2.34,19.07a.11.11,0,0,1-.1.09.1.1,0,0,1-.1-.1c-.08-1.6-.08-3.21-.12-4.82s.07-3.21.1-4.82C102.23,426.84,102.5,423.64,102.74,420.43Z" style="fill: rgb(38, 50, 56); transform-origin: 107.347px 401.575px;" id="elcefonbli8l" class="animable"></path><path d="M106.58,420.34c.34-2.54.81-5.06,1.29-7.58l.9-3.74c.3-1.24.58-2.49.94-3.72a105.24,105.24,0,0,1,4.9-14.57l.77-1.76.85-1.73c.54-1.16,1.2-2.27,1.82-3.38a28,28,0,0,1,4.63-6.13.09.09,0,0,1,.13,0,.11.11,0,0,1,0,.14h0a28,28,0,0,0-4.23,6.27c-.56,1.14-1.15,2.26-1.63,3.43l-.75,1.75-.66,1.78a103.53,103.53,0,0,0-4.27,14.57c-.59,2.46-1,5-1.45,7.46l-.6,3.75c-.22,1.25-.49,2.49-.66,3.75-.4,2.5-.86,5-1.3,7.51s-.85,5-1.38,7.53a.1.1,0,0,1-.09.08.09.09,0,0,1-.1-.1q0-3.84.17-7.68C106,425.43,106.32,422.89,106.58,420.34Z" style="fill: rgb(38, 50, 56); transform-origin: 114.262px 406.726px;" id="elf1ql0rqc1sj" class="animable"></path><path d="M111.88,420.66c1.19-3.36,2.56-6.65,4.06-9.87a89.11,89.11,0,0,1,5.1-9.36.12.12,0,0,1,.14,0,.11.11,0,0,1,0,.14,87,87,0,0,0-4.35,9.65c-1.3,3.27-2.47,6.6-3.46,10s-1.72,6.82-2.61,10.21-1.71,6.8-2.75,10.23a.1.1,0,0,1-.2,0,50.81,50.81,0,0,1,1-10.66A65.65,65.65,0,0,1,111.88,420.66Z" style="fill: rgb(38, 50, 56); transform-origin: 114.506px 421.584px;" id="elt4wg07dfs69" class="animable"></path><path d="M112.1,431.86a23.43,23.43,0,0,1,2.82-5.91,24.4,24.4,0,0,1,4.11-5.1,18.41,18.41,0,0,1,2.61-2,10.69,10.69,0,0,1,3-1.34.1.1,0,0,1,.06.19h0a14.79,14.79,0,0,0-4.91,3.82,23.14,23.14,0,0,0-3.42,5.18c-1,1.84-1.48,3.87-2.32,5.77-.37,1-.75,1.95-1.18,2.92a24.5,24.5,0,0,1-1.28,3h0a.09.09,0,0,1-.08.05.1.1,0,0,1-.11-.1,23.78,23.78,0,0,1,.12-3.27C111.62,434,111.85,432.92,112.1,431.86Z" style="fill: rgb(38, 50, 56); transform-origin: 118.075px 427.974px;" id="elvj1nkyda7bi" class="animable"></path><path d="M111.71,372.69A18.24,18.24,0,0,0,124.63,359c2.42-11.3-5.39-6.46,1.61-24.22s5.38-21.8,3-26.92-3.77-3.5-5.92,3.23-10,17.23-12.92,36.88S111.71,372.69,111.71,372.69Z" style="fill: #407BFF; transform-origin: 120.325px 338.768px;" id="eloup0q4ra5id" class="animable"></path><path d="M91,353.58s7-2.42,7.27-15.61-5.11-10.5-5.92-26.92-1.89-28-4.85-28.26S76.72,290.87,74,309.17s3.49,30.41,8.88,35.8S91,353.58,91,353.58Z" style="fill: #407BFF; transform-origin: 85.8094px 318.182px;" id="elapa70271l5q" class="animable"></path><path d="M115.47,388.57s1.62-9.69,4.85-14.27,10.23-8.61,14.8-17.49,9.69-13.19,9.42-.54-5.92,19.11-12.92,23.42S115.47,388.57,115.47,388.57Z" style="fill: #407BFF; transform-origin: 130.01px 368.468px;" id="ells1wyayxyl" class="animable"></path><path d="M118.44,405.25s6.45-12.38,15.87-21.53,17-13.72,14.27-9.15-5.92,4.31-10.5,12.38-3.23,14-9.69,18.57S118.44,405.25,118.44,405.25Z" style="fill: #407BFF; transform-origin: 133.792px 390.13px;" id="elt7albr4zni" class="animable"></path><path d="M119.24,421.13c.27-.8.54-6.72,9.69-11.57s17.77-3,16.69-.54-6.73,6.46-12.38,8.89S119.24,421.13,119.24,421.13Z" style="fill: #407BFF; transform-origin: 132.476px 413.829px;" id="elc5qhgb4q1hp" class="animable"></path><path d="M91.52,389.11s4-5.12,1.88-15.88-7-8.08-12.38-13.73-4.3-6.46-9.69-12.38S61.11,338,59,340.39s1.08,10,4.31,14.26S71.6,361.11,74,366.5s1.34,14,7.53,18S91.52,389.11,91.52,389.11Z" style="fill: #407BFF; transform-origin: 76.1702px 364.351px;" id="elrxl2yu32xy" class="animable"></path><path d="M78.06,392.07S68.37,381,61.38,373s-9.69-14.27-10-8.88-2.43,9.68,3.23,16.68S78.06,392.07,78.06,392.07Z" style="fill: #407BFF; transform-origin: 64.3979px 377.088px;" id="el7t2hdkumfag" class="animable"></path><path d="M83.18,409.83s.27-4.31-15.08-14.26-21.8-11.85-20.18-7.81,8.34,8.07,15.61,15.34S83.18,409.83,83.18,409.83Z" style="fill: #407BFF; transform-origin: 65.4286px 397.807px;" id="elgwlfb30pist" class="animable"></path><path d="M111.07,371.54s3.6-19.31,7.37-33,6.19-22.07,6.19-22.07" style="fill: none; stroke: rgb(38, 50, 56); stroke-linecap: round; stroke-linejoin: round; transform-origin: 117.85px 344.005px;" id="el24qj0ol6htj" class="animable"></path><path d="M91.6,353.78s-6.54-20.93-8.69-33.58.27-22.07,1.34-27.72" style="fill: none; stroke: rgb(38, 50, 56); stroke-linecap: round; stroke-linejoin: round; transform-origin: 86.8241px 323.13px;" id="elx3kz3bjo53o" class="animable"></path><path d="M116.32,388.16A101.93,101.93,0,0,1,126.24,374c5.92-7,10.5-10.76,13.19-17.49" style="fill: none; stroke: rgb(38, 50, 56); stroke-linecap: round; stroke-linejoin: round; transform-origin: 127.875px 372.335px;" id="elebtl3c2mwir" class="animable"></path><path d="M91.52,389.11s-2.15-12.92-7.27-19.65-15.34-17.23-19.38-24" style="fill: none; stroke: rgb(38, 50, 56); stroke-linecap: round; stroke-linejoin: round; transform-origin: 78.195px 367.285px;" id="elfelqggzsiz6" class="animable"></path><path d="M119.88,420.84s9.05-5.9,15.51-9.13" style="fill: none; stroke: rgb(38, 50, 56); stroke-linecap: round; stroke-linejoin: round; transform-origin: 127.635px 416.275px;" id="elgsgk1zx3rz" class="animable"></path><path d="M93.54,477.93h11.84a5.19,5.19,0,0,0,4.8-3.2c3.87-9.27,14.21-36.05,8-43.64-5.93-7.23-31.49-7.23-37.42,0-6.22,7.59,4.12,34.37,8,43.64A5.19,5.19,0,0,0,93.54,477.93Z" style="fill: rgb(38, 50, 56); stroke: rgb(38, 50, 56); stroke-linecap: round; stroke-linejoin: round; transform-origin: 99.4674px 451.799px;" id="el5ol0vvwfcrq" class="animable"></path></g><g id="freepik--Arrows--inject-2" class="animable" style="transform-origin: 255.74px 129.96px;"><g id="el72fislvflg2"><g style="opacity: 0.3; transform-origin: 255.74px 129.96px;" class="animable" id="elmm7vac96vio"><polygon points="461.8 138.4 402.63 184.04 369.5 153.82 380.96 147.21 342.71 135.81 343.93 174.52 354.58 165.38 403.58 223.7 484.84 163.58 461.8 138.4" style="fill: none; stroke: rgb(0, 0, 0); stroke-miterlimit: 10; transform-origin: 413.775px 179.755px;" id="el6pjobf95umo" class="animable"></polygon><polygon points="483.1 36.22 429.93 54.05 421.76 40.85 374.13 61.71 378.72 48.13 350.26 72.39 380.84 86.66 375.13 74.1 417.24 60.25 429.48 76.09 494.2 54.4 483.1 36.22" style="fill: none; stroke: rgb(0, 0, 0); stroke-miterlimit: 10; transform-origin: 422.23px 61.44px;" id="el86d4b8b531r" class="animable"></polygon><polygon points="25.93 47.33 80.12 61.45 86.51 47.11 135.64 64.81 129.5 51.12 160.31 73.92 132.13 91.21 136.18 77.73 93.29 66.83 83.25 84.24 17.28 67.08 25.93 47.33" style="fill: none; stroke: rgb(0, 0, 0); stroke-miterlimit: 10; transform-origin: 88.795px 69.16px;" id="elqmb6bkn1ti" class="animable"></polygon><polygon points="136.1 142.68 146 148.39 117.39 174.49 66.29 135.07 19.92 164.94 30.14 192.68 64.36 170.11 116.57 208.74 158.88 158.38 168.08 166.26 169.13 132.83 136.1 142.68" style="fill: none; stroke: rgb(0, 0, 0); stroke-miterlimit: 10; transform-origin: 94.525px 170.785px;" id="el6hytbtw5dh7" class="animable"></polygon></g></g></g><g id="freepik--Character--inject-2" class="animable" style="transform-origin: 253.955px 252.585px;"><path d="M312,450c-.39-1-2.53-1.75-2.53-1.75S308.32,410,308.32,401s-6.4-27.16-6.79-30.85.39-29.87-1.75-48.1-7-40.93-7-40.93l-32.11-10.09c0-.59-8.54,2.33-8.54,2.33l-26,7.76s-4.85,22.69-7,40.93-1.35,44.42-1.74,48.1-6.79,21.92-6.79,30.85-1.16,47.22-1.16,47.22S207.34,449,207,450s-1.35,9.89-1.35,9.89,12.61,3.69,14.74,4.08,2.71.19,2.91-.58,3.49-5.24,3.49-7.18-1-7-1-8.73,13.38-66.05,13.38-66.05,19.21-74.29,20-73.13a.46.46,0,0,0,.68,0c.78-1.16,20,73.13,20,73.13s13.39,64.3,13.39,66.05-1,6.79-1,8.73,3.3,6.4,3.49,7.18.78,1,2.91.58,14.74-4.08,14.74-4.08S312.39,451,312,450Z" style="fill: rgb(38, 50, 56); stroke: rgb(38, 50, 56); stroke-linecap: round; stroke-miterlimit: 10; transform-origin: 259.515px 367.565px;" id="el78a06i65zx4" class="animable"></path><path d="M218.21,460.86s-4.08-8.14-6.6-7.56-5.43,5.43-6,6.59-9.51,9.42-9.51,9.42-8,4.27-8.92,5.43a4.35,4.35,0,0,0-.78,2.91h37.44a54.7,54.7,0,0,0,1.16-9.22,29.37,29.37,0,0,0-.38-7.37Z" style="fill: rgb(255, 255, 255); stroke: rgb(38, 50, 56); stroke-linecap: round; stroke-miterlimit: 10; transform-origin: 205.732px 465.46px;" id="elmljz57htle" class="animable"></path><path d="M186.39,477.65h37.44s.16-1.18.36-2.91h-37A4.35,4.35,0,0,0,186.39,477.65Z" style="fill: rgb(255, 255, 255); stroke: rgb(38, 50, 56); stroke-linecap: round; stroke-miterlimit: 10; transform-origin: 205.282px 476.195px;" id="el44st0lysl7p" class="animable"></path><path d="M302.67,460.86s4.07-8.14,6.59-7.56,5.43,5.43,6,6.59,9.51,9.42,9.51,9.42,8,4.27,8.92,5.43a4.35,4.35,0,0,1,.78,2.91H297s-1-7.18-1.16-12.22.38-4.37.38-4.37Z" style="fill: rgb(255, 255, 255); stroke: rgb(38, 50, 56); stroke-linecap: round; stroke-miterlimit: 10; transform-origin: 315.149px 465.46px;" id="el2rubofjz6y8" class="animable"></path><path d="M334.48,477.65H297s-.16-1.18-.36-2.91h37A4.35,4.35,0,0,1,334.48,477.65Z" style="fill: rgb(255, 255, 255); stroke: rgb(38, 50, 56); stroke-linecap: round; stroke-miterlimit: 10; transform-origin: 315.566px 476.195px;" id="elgzz81e1r9sk" class="animable"></path><path d="M260.77,141.67a23.19,23.19,0,0,0-19.16,13.73,19,19,0,0,0-1.63,5.71c-.52,6-.39,9.6-1.69,15.44s-7,9.85-4.92,16.08,11.54,15.7,28.14,15.7,27.37-11.81,28.15-15.7-1.94-7.65-3.89-15.18-.65-13.23-4-23S268.65,141,261,141.65Z" style="fill: rgb(38, 50, 56); stroke: rgb(38, 50, 56); stroke-linecap: round; stroke-miterlimit: 10; transform-origin: 261.357px 174.954px;" id="elgpxwp5myer5" class="animable"></path><path d="M329.28,180.88c-1.5,1.25-2,1.75-2,1.75L290.7,220.37l-4.54,31.53,10.74,39.76s-2.46,3.89-9.6,9.34S265,314.88,265,314.88l-5.42-28.74-1,4.67-1.71,24.07s-15.18-8.43-22.31-13.88-12.6-9.34-12.6-9.34l12.5-39.76-4.54-31.53-36.59-37.74s-.51-.52-2.07-1.82c-.87-.73,2.76-16.1,6.13-29.51,2.66-10.57,5.15-19.91,5.15-19.91a25.89,25.89,0,0,1-4.67-1.95,5.52,5.52,0,0,1-1.55-2.07h21.79l-4.41,4.41-2.74,21.66-2.71,21.4,32.17,22.7,8.43,3.77h23l8.44-3.77,32.17-22.7-2.68-21.16-2.77-21.9-4.41-4.41H324.3a5.48,5.48,0,0,1-1.56,2.07,25.6,25.6,0,0,1-4.67,1.95s2.6,9.76,5.33,20.6c2.25,9,4.58,18.67,5.58,24.23.48,2.65.66,4.36.38,4.59l-.08.07" style="fill: rgb(255, 255, 255); stroke: rgb(38, 50, 56); stroke-linecap: round; stroke-miterlimit: 10; transform-origin: 260.311px 221.125px;" id="el9txdzzj74r4" class="animable"></path><path d="M290.7,220.37l-4.54,31.53,10.74,39.76s-2.46,3.89-9.6,9.34S265,314.88,265,314.88l-5.07-17.63-1,4.67-2.06,13s-15.18-8.43-22.31-13.88-12.6-9.34-12.6-9.34l12.5-39.76-4.54-31.53-36.59-37.74s-.51-.52-2.07-1.82c-.87-.73,2.76-16.1,6.13-29.51l13.57,2.14-2.71,21.4,32.17,22.7,8.43,3.77h23l8.44-3.77,32.17-22.7-2.68-21.16L323.4,152c2.25,9,4.58,18.67,5.58,24.23l.3,4.66c-1.5,1.25-2,1.75-2,1.75Z" style="fill: rgb(255, 255, 255); stroke: rgb(38, 50, 56); stroke-linecap: round; stroke-miterlimit: 10; transform-origin: 260.205px 233.13px;" id="elqa3ipokkgj" class="animable"></path><line x1="260.35" y1="277.16" x2="260.35" y2="281.73" style="fill: none; stroke: rgb(38, 50, 56); stroke-linecap: round; stroke-miterlimit: 10; transform-origin: 260.35px 279.445px;" id="elcrn4egkfpnh" class="animable"></line><line x1="260.35" y1="233.48" x2="260.35" y2="273.09" style="fill: none; stroke: rgb(38, 50, 56); stroke-linecap: round; stroke-miterlimit: 10; transform-origin: 260.35px 253.285px;" id="elpy2m12f9a4" class="animable"></line><line x1="290.7" y1="220.37" x2="296.8" y2="199.88" style="fill: none; stroke: rgb(38, 50, 56); stroke-linecap: round; stroke-miterlimit: 10; transform-origin: 293.75px 210.125px;" id="el77nybnb7364" class="animable"></line><line x1="299.45" y1="200.87" x2="300.69" y2="198.32" style="fill: none; stroke: rgb(38, 50, 56); stroke-linecap: round; stroke-miterlimit: 10; transform-origin: 300.07px 199.595px;" id="elj059g1zyp0s" class="animable"></line><line x1="292.31" y1="215.58" x2="297.76" y2="204.36" style="fill: none; stroke: rgb(38, 50, 56); stroke-linecap: round; stroke-miterlimit: 10; transform-origin: 295.035px 209.97px;" id="el1iwd72ocdy8" class="animable"></line><line x1="225.79" y1="203" x2="224.93" y2="199.36" style="fill: none; stroke: rgb(38, 50, 56); stroke-linecap: round; stroke-miterlimit: 10; transform-origin: 225.36px 201.18px;" id="el7diuv9rz41e" class="animable"></line><line x1="229.86" y1="220.37" x2="226.49" y2="206.01" style="fill: none; stroke: rgb(38, 50, 56); stroke-linecap: round; stroke-miterlimit: 10; transform-origin: 228.175px 213.19px;" id="elzu92cj3sdpj" class="animable"></line><line x1="228.95" y1="217.13" x2="221.04" y2="202.08" style="fill: none; stroke: rgb(38, 50, 56); stroke-linecap: round; stroke-miterlimit: 10; transform-origin: 224.995px 209.605px;" id="elc2wbfd341ui" class="animable"></line><path d="M247.63,203.38s-1.55,11.16.65,18.81" style="fill: none; stroke: rgb(38, 50, 56); stroke-linecap: round; stroke-miterlimit: 10; transform-origin: 247.69px 212.785px;" id="el3aff222dxpm" class="animable"></path><path d="M246.08,202.86a35.91,35.91,0,0,0-2.86,12.58" style="fill: none; stroke: rgb(38, 50, 56); stroke-linecap: round; stroke-miterlimit: 10; transform-origin: 244.65px 209.15px;" id="elaf8nwn1hyh" class="animable"></path><path d="M272.28,206s1,8.82-.13,15.3" style="fill: none; stroke: rgb(38, 50, 56); stroke-linecap: round; stroke-miterlimit: 10; transform-origin: 272.419px 213.65px;" id="elx61vq0q7kx8" class="animable"></path><path d="M273.58,203.51a22.53,22.53,0,0,1,2.85,8.17" style="fill: none; stroke: rgb(38, 50, 56); stroke-linecap: round; stroke-miterlimit: 10; transform-origin: 275.005px 207.595px;" id="el7ez3rffz8r" class="animable"></path><polygon points="252.69 190.29 252.56 202.34 257.75 210.13 260.09 226.99 263.59 210 269.95 200.4 269.56 190.17 252.69 190.29" style="fill: rgb(255, 255, 255); stroke: rgb(38, 50, 56); stroke-linecap: round; stroke-miterlimit: 10; transform-origin: 261.255px 208.58px;" id="elle4ekcz1p3g" class="animable"></polygon><polygon points="262.12 194.65 253.04 197.04 253.04 190.29 262.12 194.65" style="fill: rgb(38, 50, 56); stroke: rgb(38, 50, 56); stroke-linecap: round; stroke-miterlimit: 10; transform-origin: 257.58px 193.665px;" id="el9xxidp6wq9c" class="animable"></polygon><path d="M260.35,155.4s-13.75,9.21-13.75,10.9.39,17.25,1.55,20.1,10.51,10.25,12.33,10.38,4.15-.52,4.67-1,9.08-7.78,9.6-10.24S276,169.15,276,169.15,262.29,162.8,260.35,155.4Z" style="fill: rgb(255, 255, 255); stroke: rgb(38, 50, 56); stroke-linecap: round; stroke-miterlimit: 10; transform-origin: 261.3px 176.098px;" id="el7snrty6gimf" class="animable"></path><path d="M264,169.15s-.39,8.43-.13,9.08-3.24-.13-3.24-.13" style="fill: none; stroke: rgb(38, 50, 56); stroke-linecap: round; stroke-miterlimit: 10; transform-origin: 262.315px 173.819px;" id="elx7okhidlelk" class="animable"></path><path d="M256.71,182.51s5.32,2.6,10-.39c0,0-.78,4.28-4,4.93C258.85,187.82,256.71,182.51,256.71,182.51Z" style="fill: rgb(38, 50, 56); stroke: rgb(38, 50, 56); stroke-linecap: round; stroke-miterlimit: 10; transform-origin: 261.71px 184.623px;" id="elivu37hlxjk" class="animable"></path><ellipse cx="255.03" cy="171.03" rx="1.17" ry="1.75" style="fill: rgb(38, 50, 56); transform-origin: 255.03px 171.03px;" id="elmxidtveahf9" class="animable"></ellipse><path d="M270,171c0,1-.53,1.75-1.17,1.75s-1.17-.78-1.17-1.75.52-1.75,1.17-1.75S270,170.07,270,171Z" style="fill: rgb(38, 50, 56); transform-origin: 268.83px 171px;" id="elfugmxei9mhe" class="animable"></path><path d="M251.27,167.34s4.15-3,7.52-1" style="fill: none; stroke: rgb(38, 50, 56); stroke-linecap: round; stroke-miterlimit: 10; transform-origin: 255.03px 166.496px;" id="eltbp3cewfqwa" class="animable"></path><path d="M264.5,166.17a8.11,8.11,0,0,1,8,1" style="fill: none; stroke: rgb(38, 50, 56); stroke-linecap: round; stroke-miterlimit: 10; transform-origin: 268.5px 166.356px;" id="elhsw9sgk0wzl" class="animable"></path><path d="M246.73,172.52s-3.38-3.24-3.51,0,4,6.62,4,6.62Z" style="fill: rgb(255, 255, 255); stroke: rgb(38, 50, 56); stroke-linecap: round; stroke-miterlimit: 10; transform-origin: 245.218px 175.11px;" id="el4edatxvun4p" class="animable"></path><path d="M276,172.91s2.86-2.46,3.25-.13-3.77,6.49-3.77,6.49Z" style="fill: rgb(255, 255, 255); stroke: rgb(38, 50, 56); stroke-linecap: round; stroke-miterlimit: 10; transform-origin: 277.378px 175.524px;" id="ellmsddc34me" class="animable"></path><polygon points="250.62 198.19 258.66 208.96 254.25 218.56 247.63 200.92 250.62 198.19" style="fill: rgb(255, 255, 255); stroke: rgb(38, 50, 56); stroke-linecap: round; stroke-miterlimit: 10; transform-origin: 253.145px 208.375px;" id="elvt2y9zopvg" class="animable"></polygon><polygon points="270.72 198.19 262.68 208.96 267.09 218.56 273.71 200.92 270.72 198.19" style="fill: rgb(255, 255, 255); stroke: rgb(38, 50, 56); stroke-linecap: round; stroke-miterlimit: 10; transform-origin: 268.195px 208.375px;" id="elbra25fy4je" class="animable"></polygon><rect x="164.4" y="27.52" width="179.11" height="100.22" style="fill: rgb(38, 50, 56); stroke: rgb(38, 50, 56); stroke-linecap: round; stroke-miterlimit: 10; transform-origin: 253.955px 77.63px;" id="elmbu7mqlsh6c" class="animable"></rect><path d="M307.21,132.11s-4.85-5.11-5.7-6.21-1.15-2.09-.4-2.94-.05-5.45-.1-6.6,1.13-1,2.31.25,1.75,5.86,1.69,6.85a3.51,3.51,0,0,0,.55,1.9s4.53.1,6.17,1.7.93,4.79.93,4.79" style="fill: rgb(255, 255, 255); stroke: rgb(38, 50, 56); stroke-linecap: round; stroke-miterlimit: 10; transform-origin: 306.747px 123.844px;" id="elt89jxex2alc" class="animable"></path><path d="M213.74,132.11s4.85-5.11,5.7-6.21,1.15-2.09.41-2.94,0-5.45.1-6.6-1.13-1-2.31.25-1.75,5.86-1.69,6.85a3.6,3.6,0,0,1-.55,1.9s-4.54.1-6.18,1.7-.93,4.79-.93,4.79" style="fill: rgb(255, 255, 255); stroke: rgb(38, 50, 56); stroke-linecap: round; stroke-miterlimit: 10; transform-origin: 214.204px 123.844px;" id="elx87fode6o4r" class="animable"></path></g><g id="freepik--Text--inject-2" class="animable" style="transform-origin: 254.14px 76.9652px;"><path d="M192.19,72.52V41.74h11.94v3.19h-7.64V55.12h6.19v3h-6.19V69.45h7.71v3.07Z" style="fill: #407BFF; transform-origin: 198.195px 57.13px;" id="el8pcu2dgj22t" class="animable"></path><path d="M205.76,72.52l6.42-16.11-6.31-14.67h4l4.67,10.87,4.26-10.87h4l-6.46,15,6.76,15.77h-4l-5-11.59-4.33,11.59Z" style="fill: #407BFF; transform-origin: 214.43px 57.13px;" id="elxb5hhe2ys6f" class="animable"></path><path d="M233.7,72.87a8.27,8.27,0,0,1-5.08-1.37,7.07,7.07,0,0,1-2.51-3.69,17.72,17.72,0,0,1-.7-5.17V51.77a18.74,18.74,0,0,1,.7-5.43,6.58,6.58,0,0,1,2.51-3.59,8.71,8.71,0,0,1,5.08-1.28,8.49,8.49,0,0,1,4.57,1.07,6,6,0,0,1,2.44,3,13.66,13.66,0,0,1,.74,4.75v2.43h-4.07V50.59a24.43,24.43,0,0,0-.17-3,3.25,3.25,0,0,0-.93-2,3.67,3.67,0,0,0-2.55-.72,3.24,3.24,0,0,0-3.74,3,19.16,19.16,0,0,0-.25,3.33v12.2a14.12,14.12,0,0,0,.38,3.66,3.22,3.22,0,0,0,1.26,1.92,4.26,4.26,0,0,0,2.35.57,3.4,3.4,0,0,0,2.51-.78,3.67,3.67,0,0,0,.95-2.14,23,23,0,0,0,.19-3.2V61.08h4.07v2.28a16.19,16.19,0,0,1-.69,5,6.31,6.31,0,0,1-2.35,3.35A8,8,0,0,1,233.7,72.87Z" style="fill: #407BFF; transform-origin: 233.43px 57.1714px;" id="elyzdgw8vrscl" class="animable"></path><path d="M245.78,72.52V41.74H250V72.52Z" style="fill: #407BFF; transform-origin: 247.89px 57.13px;" id="el0twsja7h8zc" class="animable"></path><path d="M258.36,72.52V44.93h-5.21V41.74h14.56v3.19h-5V72.52Z" style="fill: #407BFF; transform-origin: 260.43px 57.13px;" id="elttkzbh0ploj" class="animable"></path><path d="M270.9,72.52V41.74h4.22V72.52Z" style="fill: #407BFF; transform-origin: 273.01px 57.13px;" id="elmb7gbyxmut" class="animable"></path><path d="M280.1,72.52V41.74H283l8.74,20.45V41.74h3.57V72.52H292.6l-8.85-21v21Z" style="fill: #407BFF; transform-origin: 287.705px 57.13px;" id="elucfuz2tqzf" class="animable"></path><path d="M307.5,72.9a7.85,7.85,0,0,1-4.62-1.23,6.91,6.91,0,0,1-2.5-3.59,18.14,18.14,0,0,1-.78-5.67V52.12a20.43,20.43,0,0,1,.7-5.76,6.43,6.43,0,0,1,2.51-3.63,8.68,8.68,0,0,1,5-1.26,9.75,9.75,0,0,1,4.66,1,5.71,5.71,0,0,1,2.57,3,13.72,13.72,0,0,1,.79,5v1.14h-4v-.95a16.32,16.32,0,0,0-.26-3.28,3.14,3.14,0,0,0-1.08-1.91,4.3,4.3,0,0,0-2.57-.62,3.76,3.76,0,0,0-2.76.87,4.14,4.14,0,0,0-1.06,2.38,24.68,24.68,0,0,0-.21,3.4v11.4a18.13,18.13,0,0,0,.32,3.69,3.69,3.69,0,0,0,1.24,2.2,4.08,4.08,0,0,0,2.58.72,3.82,3.82,0,0,0,2.59-.79,4.26,4.26,0,0,0,1.25-2.36,18.37,18.37,0,0,0,.34-3.88V60.32H308.3v-3h7.79V72.52h-2.7L313,69a6.41,6.41,0,0,1-1.91,2.81A5.3,5.3,0,0,1,307.5,72.9Z" style="fill: #407BFF; transform-origin: 307.843px 57.1845px;" id="elajd94w8pp8j" class="animable"></path><path d="M207.83,112.13V81.35h2.93l8.74,20.44V81.35h3.57v30.78h-2.73l-8.86-21v21Z" style="fill: #407BFF; transform-origin: 215.45px 96.74px;" id="eli845onwn7sc" class="animable"></path><path d="M227.9,112.13V81.35h11.93v3.19h-7.64V94.73h6.2v3h-6.2v11.28h7.72v3.08Z" style="fill: #407BFF; transform-origin: 233.905px 96.74px;" id="elyp0pkqczbl" class="animable"></path><path d="M247.36,112.13l-5-30.78h3.57l3.31,22.12,4.14-22h3l4.18,22.12,3.24-22.23h3.49l-4.94,30.78h-3.12L255,89.33l-4.33,22.8Z" style="fill: #407BFF; transform-origin: 254.825px 96.745px;" id="elibyu32hx1x" class="animable"></path><path d="M278.33,112.47a8,8,0,0,1-4.42-1.14,7.13,7.13,0,0,1-2.68-3.15,13,13,0,0,1-1.07-4.68l3.8-1a17,17,0,0,0,.52,3.15,5.5,5.5,0,0,0,1.31,2.49,3.3,3.3,0,0,0,2.54,1,3.26,3.26,0,0,0,2.53-.93,3.82,3.82,0,0,0,.86-2.68,5.51,5.51,0,0,0-1-3.36,18.15,18.15,0,0,0-2.4-2.57L273.2,95A8.67,8.67,0,0,1,271,92.08a9.35,9.35,0,0,1-.72-3.89,6.92,6.92,0,0,1,1.94-5.25,7.3,7.3,0,0,1,5.28-1.86,9.77,9.77,0,0,1,3.21.48A5.51,5.51,0,0,1,283,83a7.26,7.26,0,0,1,1.48,2.49,13.64,13.64,0,0,1,.74,3.51l-3.65,1a14.53,14.53,0,0,0-.45-2.79,4.17,4.17,0,0,0-1.2-2,3.52,3.52,0,0,0-2.45-.78,3.47,3.47,0,0,0-2.49.85,3.34,3.34,0,0,0-.89,2.53,5,5,0,0,0,.47,2.32A6.77,6.77,0,0,0,276.09,92l5.21,4.56a16.34,16.34,0,0,1,3.08,3.63,9.24,9.24,0,0,1,1.33,5,7.78,7.78,0,0,1-.95,3.93,6.48,6.48,0,0,1-2.61,2.53A8.06,8.06,0,0,1,278.33,112.47Z" style="fill: #407BFF; transform-origin: 277.936px 96.7722px;" id="elsy7xl5stjm" class="animable"></path><path d="M289.85,105.56l-1.29-24.21h4.1l-1.37,24.21Zm-1.29,6.57V108h4.1v4.18Z" style="fill: #407BFF; transform-origin: 290.61px 96.765px;" id="elpmv0yv7ll9" class="animable"></path><path d="M297.75,105.56l-1.29-24.21h4.11l-1.37,24.21Zm-1.29,6.57V108h4.11v4.18Z" style="fill: #407BFF; transform-origin: 298.515px 96.765px;" id="ely2gpgqql1pi" class="animable"></path></g><g id="freepik--Floor--inject-2" class="animable" style="transform-origin: 256.565px 450.79px;"><polygon points="411.16 423.93 402.84 427.68 404.6 432.72 412.61 431.35 411.16 423.93" style="fill: rgb(38, 50, 56); transform-origin: 407.725px 428.325px;" id="el6w7xisofhq" class="animable"></polygon><line x1="51.02" y1="477.65" x2="462.11" y2="477.65" style="fill: none; stroke: rgb(38, 50, 56); stroke-linecap: round; stroke-miterlimit: 10; transform-origin: 256.565px 477.65px;" id="ellk1nu7gbpg" class="animable"></line></g><g id="freepik--Confetti--inject-2" class="animable" style="transform-origin: 251.545px 239.43px;"><polygon points="76.11 60.6 70.14 67.17 75.52 68.97 76.11 60.6" style="fill: rgb(222, 222, 222); transform-origin: 73.125px 64.785px;" id="el9lldqykoob6" class="animable"></polygon><polygon points="55.71 40.51 47.94 45.29 50.33 50.07 58.1 47.68 55.71 40.51" style="fill: #407BFF; transform-origin: 53.02px 45.29px;" id="elw7iny0igb9" class="animable"></polygon><polygon points="83.88 95.86 77.31 97.05 78.5 103.62 85.08 101.23 83.88 95.86" style="fill: rgb(181, 181, 181); transform-origin: 81.195px 99.74px;" id="el6brr1sm4j7p" class="animable"></polygon><polygon points="129.61 160.63 136.9 155.56 132.06 152.61 129.61 160.63" style="fill: rgb(222, 222, 222); transform-origin: 133.255px 156.62px;" id="ely4pu3ir00k8" class="animable"></polygon><polygon points="49.82 133.57 49.48 124.46 44.14 124.19 42.4 132.12 49.82 133.57" style="fill: rgb(38, 50, 56); transform-origin: 46.11px 128.88px;" id="elen6nqrxpt7d" class="animable"></polygon><polygon points="129.89 124.54 136.56 124.83 136.86 118.16 129.92 119.03 129.89 124.54" style="fill: rgb(181, 181, 181); transform-origin: 133.375px 121.495px;" id="eljtlfp7h9s8s" class="animable"></polygon><polygon points="327.95 187.06 335.24 181.98 330.4 179.03 327.95 187.06" style="fill: rgb(222, 222, 222); transform-origin: 331.595px 183.045px;" id="elnbdil8dogkt" class="animable"></polygon><polygon points="112.06 169.2 107.28 176.69 112.88 177.54 112.06 169.2" style="fill: rgb(222, 222, 222); transform-origin: 110.08px 173.37px;" id="elx77o13xi6vk" class="animable"></polygon><polygon points="156.58 167.31 165.21 164.38 163.95 159.19 155.84 159.79 156.58 167.31" style="fill: #407BFF; transform-origin: 160.525px 163.25px;" id="elzngc024kx" class="animable"></polygon><polygon points="328.23 150.96 334.91 151.26 335.21 144.58 328.27 145.45 328.23 150.96" style="fill: rgb(181, 181, 181); transform-origin: 331.72px 147.92px;" id="elvibugwpl2y" class="animable"></polygon><polygon points="76.11 149.28 70.14 155.86 75.52 157.65 76.11 149.28" style="fill: rgb(222, 222, 222); transform-origin: 73.125px 153.465px;" id="ellpuzz38pl2" class="animable"></polygon><polygon points="332.52 199.06 324.75 203.84 327.14 208.62 334.91 206.23 332.52 199.06" style="fill: rgb(38, 50, 56); transform-origin: 329.83px 203.84px;" id="elna93h0mskcs" class="animable"></polygon><polygon points="83.88 184.54 77.31 185.73 78.5 192.31 85.08 189.92 83.88 184.54" style="fill: rgb(181, 181, 181); transform-origin: 81.195px 188.425px;" id="elqa99h3rvjw8" class="animable"></polygon><polygon points="194.9 235.97 202.19 230.89 197.35 227.95 194.9 235.97" style="fill: rgb(222, 222, 222); transform-origin: 198.545px 231.96px;" id="elxonrkg6oqx" class="animable"></polygon><polygon points="100.03 220.49 108.67 217.56 107.41 212.37 99.3 212.97 100.03 220.49" style="fill: rgb(38, 50, 56); transform-origin: 103.985px 216.43px;" id="eltago1j4n0ki" class="animable"></polygon><polygon points="129.89 213.22 136.56 213.52 136.86 206.84 129.92 207.71 129.89 213.22" style="fill: rgb(181, 181, 181); transform-origin: 133.375px 210.18px;" id="el7lvojnjimwy" class="animable"></polygon><polygon points="302.01 193.21 308.68 193.51 308.98 186.84 302.04 187.71 302.01 193.21" style="fill: rgb(181, 181, 181); transform-origin: 305.495px 190.175px;" id="elyo1f3vr6lv" class="animable"></polygon><polygon points="182.33 413.61 176.08 419.92 181.38 421.94 182.33 413.61" style="fill: rgb(222, 222, 222); transform-origin: 179.205px 417.775px;" id="elq0euvi5ey8" class="animable"></polygon><polygon points="42.19 305.87 35.42 311.63 40.53 314.09 42.19 305.87" style="fill: rgb(222, 222, 222); transform-origin: 38.805px 309.98px;" id="ellzkd5e443va" class="animable"></polygon><polygon points="58.83 295.65 62.87 287.74 57.21 287.43 58.83 295.65" style="fill: rgb(222, 222, 222); transform-origin: 60.04px 291.54px;" id="ely08x5g563ps" class="animable"></polygon><polygon points="96.53 312 101.84 304.89 96.31 303.62 96.53 312" style="fill: rgb(222, 222, 222); transform-origin: 99.075px 307.81px;" id="elwfcvo2m6k5m" class="animable"></polygon><polygon points="85.39 277.67 91.82 275.84 90 269.42 83.69 272.43 85.39 277.67" style="fill: rgb(181, 181, 181); transform-origin: 87.755px 273.545px;" id="eldw05rg73ml6" class="animable"></polygon><polygon points="33.63 217.6 26.86 223.36 31.97 225.82 33.63 217.6" style="fill: rgb(222, 222, 222); transform-origin: 30.245px 221.71px;" id="elj5vc0gajgxk" class="animable"></polygon><polygon points="63.75 245.44 57.39 248.31 58.73 252.16 64.86 251.11 63.75 245.44" style="fill: #407BFF; transform-origin: 61.125px 248.8px;" id="el5fcg3o1m6s4" class="animable"></polygon><polygon points="36.83 253.56 30.16 253.91 30.51 260.58 37.33 259.05 36.83 253.56" style="fill: rgb(181, 181, 181); transform-origin: 33.745px 257.07px;" id="eloniwbkrzpno" class="animable"></polygon><polygon points="115.44 242.99 108.67 248.75 113.77 251.21 115.44 242.99" style="fill: rgb(222, 222, 222); transform-origin: 112.055px 247.1px;" id="elabwkdgsfo05" class="animable"></polygon><polygon points="166.94 224.9 161.18 227.5 162.4 231 167.95 230.04 166.94 224.9" style="fill: rgb(38, 50, 56); transform-origin: 164.565px 227.95px;" id="el5awazqsrmd6" class="animable"></polygon><polygon points="118.64 278.95 111.97 279.29 112.31 285.96 119.14 284.43 118.64 278.95" style="fill: rgb(181, 181, 181); transform-origin: 115.555px 282.455px;" id="el3yhfymmbx6u" class="animable"></polygon><polygon points="456.73 92.87 464.02 87.79 459.18 84.85 456.73 92.87" style="fill: rgb(222, 222, 222); transform-origin: 460.375px 88.86px;" id="eld4hgx9cepvc" class="animable"></polygon><polygon points="412.52 121.22 418.94 119.39 417.12 112.97 410.81 115.98 412.52 121.22" style="fill: rgb(181, 181, 181); transform-origin: 414.875px 117.095px;" id="eldvcojmtdelm" class="animable"></polygon><polygon points="442.56 86.54 435.79 92.3 440.9 94.76 442.56 86.54" style="fill: rgb(222, 222, 222); transform-origin: 439.175px 90.65px;" id="elu3jru5fp0v" class="animable"></polygon><polygon points="474.78 112.38 466.46 116.13 468.22 121.17 476.23 119.79 474.78 112.38" style="fill: #407BFF; transform-origin: 471.345px 116.775px;" id="el1xayukkypwo" class="animable"></polygon><polygon points="420 333.06 427.29 327.99 422.45 325.04 420 333.06" style="fill: rgb(222, 222, 222); transform-origin: 423.645px 329.05px;" id="eluezwzq05i8" class="animable"></polygon><polygon points="375.56 324.3 370.78 331.79 376.38 332.65 375.56 324.3" style="fill: rgb(222, 222, 222); transform-origin: 373.58px 328.475px;" id="elz2qttpppngi" class="animable"></polygon><polygon points="339.62 304.39 333.64 310.96 339.02 312.75 339.62 304.39" style="fill: rgb(222, 222, 222); transform-origin: 336.63px 308.57px;" id="eld0maaiesasi" class="animable"></polygon><polygon points="318 301.15 317 294.25 312.92 294.47 312.24 300.65 318 301.15" style="fill: rgb(38, 50, 56); transform-origin: 315.12px 297.7px;" id="elef3iqdjze4o" class="animable"></polygon><polygon points="347.39 339.64 340.81 340.84 342.01 347.41 348.58 345.02 347.39 339.64" style="fill: rgb(181, 181, 181); transform-origin: 344.695px 343.525px;" id="el3pwm5qq9bvc" class="animable"></polygon><polygon points="393.11 404.42 400.4 399.34 395.56 396.4 393.11 404.42" style="fill: rgb(222, 222, 222); transform-origin: 396.755px 400.41px;" id="elf782i86glkv" class="animable"></polygon><polygon points="363.54 375.6 372.18 372.67 370.91 367.47 362.81 368.07 363.54 375.6" style="fill: #407BFF; transform-origin: 367.495px 371.535px;" id="elmv9551jyulo" class="animable"></polygon><polygon points="393.39 368.32 400.07 368.62 400.37 361.95 393.43 362.81 393.39 368.32" style="fill: rgb(181, 181, 181); transform-origin: 396.88px 365.285px;" id="el2rr3l18vpp7" class="animable"></polygon><polygon points="314.14 371.26 321.43 366.18 316.59 363.24 314.14 371.26" style="fill: rgb(222, 222, 222); transform-origin: 317.785px 367.25px;" id="elz8an5v3onmp" class="animable"></polygon><polygon points="314.42 335.16 321.1 335.46 321.39 328.79 314.46 329.65 314.42 335.16" style="fill: rgb(181, 181, 181); transform-origin: 317.905px 332.125px;" id="el0jkylvakmkcj" class="animable"></polygon><polygon points="378.94 398.09 372.17 403.85 377.28 406.31 378.94 398.09" style="fill: rgb(222, 222, 222); transform-origin: 375.555px 402.2px;" id="elaqmivsl030n" class="animable"></polygon><polygon points="357.51 19.77 364.8 14.7 359.96 11.75 357.51 19.77" style="fill: rgb(222, 222, 222); transform-origin: 361.155px 15.76px;" id="ell8bdsj7377" class="animable"></polygon><polygon points="286.74 66.11 290.77 58.2 285.11 57.88 286.74 66.11" style="fill: rgb(222, 222, 222); transform-origin: 287.94px 61.995px;" id="el58mqj0d1iyu" class="animable"></polygon><polygon points="324.43 82.46 329.75 75.34 324.22 74.08 324.43 82.46" style="fill: rgb(222, 222, 222); transform-origin: 326.985px 78.27px;" id="el828ydfw1y19" class="animable"></polygon><polygon points="313.3 48.12 319.73 46.3 317.9 39.87 311.59 42.88 313.3 48.12" style="fill: rgb(181, 181, 181); transform-origin: 315.66px 43.995px;" id="eln1csn4aukil" class="animable"></polygon><polygon points="293.75 13.89 285.44 17.64 287.2 22.69 295.21 21.31 293.75 13.89" style="fill: #407BFF; transform-origin: 290.325px 18.29px;" id="eljkfp3vvylia" class="animable"></polygon><polygon points="343.34 13.45 336.57 19.2 341.68 21.66 343.34 13.45" style="fill: rgb(222, 222, 222); transform-origin: 339.955px 17.555px;" id="elvnxu1g0usxj" class="animable"></polygon><polygon points="431.8 33.89 426.6 26.39 421.96 29.04 424.77 36.67 431.8 33.89" style="fill: #407BFF; transform-origin: 426.88px 31.53px;" id="elmx8ltyuidzj" class="animable"></polygon><polygon points="346.54 49.4 339.87 49.75 340.22 56.42 347.04 54.89 346.54 49.4" style="fill: rgb(181, 181, 181); transform-origin: 343.455px 52.91px;" id="eldu0o6ym0otw" class="animable"></polygon><polygon points="339.75 305.87 332.99 311.63 338.09 314.09 339.75 305.87" style="fill: rgb(222, 222, 222); transform-origin: 336.37px 309.98px;" id="elyy47gxkwx4" class="animable"></polygon><polygon points="356.4 295.65 360.43 287.74 354.77 287.43 356.4 295.65" style="fill: rgb(222, 222, 222); transform-origin: 357.6px 291.54px;" id="elajhta45q26" class="animable"></polygon><polygon points="394.09 312 399.4 304.89 393.88 303.62 394.09 312" style="fill: rgb(222, 222, 222); transform-origin: 396.64px 307.81px;" id="el703c6zgn1hk" class="animable"></polygon><polygon points="303.68 242.64 310.97 237.56 306.13 234.62 303.68 242.64" style="fill: rgb(222, 222, 222); transform-origin: 307.325px 238.63px;" id="el48koi1udh1d" class="animable"></polygon><polygon points="259.24 233.88 254.46 241.37 260.07 242.22 259.24 233.88" style="fill: rgb(222, 222, 222); transform-origin: 257.265px 238.05px;" id="el1sybkky10m9" class="animable"></polygon><polygon points="277.08 277.9 283.75 278.2 284.05 271.52 277.11 272.39 277.08 277.9" style="fill: rgb(181, 181, 181); transform-origin: 280.565px 274.86px;" id="eld2rozx5khj6" class="animable"></polygon><polygon points="213.44 135.59 220.12 135.89 220.41 129.22 213.47 130.08 213.44 135.59" style="fill: rgb(181, 181, 181); transform-origin: 216.925px 132.555px;" id="eli0r19dai7ll" class="animable"></polygon><polygon points="277.77 221.58 283.08 214.46 277.56 213.2 277.77 221.58" style="fill: rgb(222, 222, 222); transform-origin: 280.32px 217.39px;" id="ely3yxlfl1hw" class="animable"></polygon><polygon points="382.96 277.67 389.38 275.84 387.56 269.42 381.25 272.43 382.96 277.67" style="fill: rgb(181, 181, 181); transform-origin: 385.315px 273.545px;" id="ellca9lq4wxyo" class="animable"></polygon><polygon points="331.19 217.6 324.43 223.36 329.53 225.82 331.19 217.6" style="fill: rgb(222, 222, 222); transform-origin: 327.81px 221.71px;" id="elfmfwjmkd8jg" class="animable"></polygon><polygon points="363.41 243.44 355.1 247.19 356.86 252.23 364.87 250.85 363.41 243.44" style="fill: #407BFF; transform-origin: 359.985px 247.835px;" id="el0isva2ikkwg" class="animable"></polygon><polygon points="334.39 253.56 327.72 253.91 328.07 260.58 334.89 259.05 334.39 253.56" style="fill: rgb(181, 181, 181); transform-origin: 331.305px 257.07px;" id="elvt0hlyu4lp" class="animable"></polygon><polygon points="64.17 331.87 71.45 326.8 66.61 323.85 64.17 331.87" style="fill: rgb(222, 222, 222); transform-origin: 67.81px 327.86px;" id="elo32jvpbb8gq" class="animable"></polygon><polygon points="81.93 362.64 73.61 366.38 75.37 371.43 83.38 370.05 81.93 362.64" style="fill: rgb(38, 50, 56); transform-origin: 78.495px 367.035px;" id="el9mc99kkpti" class="animable"></polygon><polygon points="52.91 372.76 46.24 373.1 46.59 379.77 53.41 378.24 52.91 372.76" style="fill: rgb(181, 181, 181); transform-origin: 49.825px 376.265px;" id="elvb0mfjwqggk" class="animable"></polygon><polygon points="234.31 416.48 228.33 423.05 233.71 424.84 234.31 416.48" style="fill: rgb(222, 222, 222); transform-origin: 231.32px 420.66px;" id="elzh2rf3pm1ea" class="animable"></polygon><polygon points="213.39 406.67 205.63 411.44 208.01 416.23 215.78 413.83 213.39 406.67" style="fill: rgb(38, 50, 56); transform-origin: 210.705px 411.45px;" id="el0sv50uk03fi" class="animable"></polygon><polygon points="234.44 417.96 227.67 423.72 232.78 426.18 234.44 417.96" style="fill: rgb(222, 222, 222); transform-origin: 231.055px 422.07px;" id="ely6uw6so4gig" class="animable"></polygon><polygon points="251.08 407.74 255.12 399.83 249.46 399.52 251.08 407.74" style="fill: rgb(222, 222, 222); transform-origin: 252.29px 403.63px;" id="elz5wdt7a4snk" class="animable"></polygon><polygon points="198.37 354.73 205.66 349.65 200.81 346.71 198.37 354.73" style="fill: rgb(222, 222, 222); transform-origin: 202.015px 350.72px;" id="elc309qgy12f" class="animable"></polygon><polygon points="277.64 389.75 284.07 387.93 282.25 381.5 275.94 384.52 277.64 389.75" style="fill: rgb(181, 181, 181); transform-origin: 280.005px 385.625px;" id="elixg94np7qvd" class="animable"></polygon><polygon points="258.1 355.53 249.78 359.28 251.54 364.32 259.55 362.94 258.1 355.53" style="fill: rgb(38, 50, 56); transform-origin: 254.665px 359.925px;" id="elyz4c4jptg8k" class="animable"></polygon><polygon points="229.08 365.65 222.41 365.99 222.76 372.67 229.58 371.13 229.08 365.65" style="fill: rgb(181, 181, 181); transform-origin: 225.995px 369.16px;" id="el330ecohaltr" class="animable"></polygon><polygon points="189.24 103.82 184.47 111.31 190.07 112.17 189.24 103.82" style="fill: rgb(222, 222, 222); transform-origin: 187.27px 107.995px;" id="el3qcodofc4mp" class="animable"></polygon><polygon points="153.3 83.91 147.33 90.48 152.71 92.27 153.3 83.91" style="fill: rgb(222, 222, 222); transform-origin: 150.315px 88.09px;" id="elqqcnu2t8koj" class="animable"></polygon><polygon points="132.39 74.1 124.62 78.88 127.01 83.66 134.78 81.27 132.39 74.1" style="fill: rgb(38, 50, 56); transform-origin: 129.7px 78.88px;" id="el74suovx2uvv" class="animable"></polygon><polygon points="153.44 85.39 146.67 91.15 151.77 93.61 153.44 85.39" style="fill: rgb(222, 222, 222); transform-origin: 150.055px 89.5px;" id="elcg3dk22jazv" class="animable"></polygon><polygon points="170.08 75.17 174.11 67.26 168.45 66.95 170.08 75.17" style="fill: rgb(222, 222, 222); transform-origin: 171.28px 71.06px;" id="elvkso721hoy" class="animable"></polygon><polygon points="117.37 22.16 124.66 17.08 119.81 14.14 117.37 22.16" style="fill: rgb(222, 222, 222); transform-origin: 121.015px 18.15px;" id="elq00pt2ng5z" class="animable"></polygon><polygon points="213.63 29.88 220.05 28.05 218.23 21.62 211.92 24.64 213.63 29.88" style="fill: rgb(181, 181, 181); transform-origin: 215.985px 25.75px;" id="el4al9mi3k41p" class="animable"></polygon><polygon points="177.09 22.96 168.78 26.71 170.54 31.75 178.55 30.38 177.09 22.96" style="fill: rgb(38, 50, 56); transform-origin: 173.665px 27.355px;" id="el4fgyncurnef" class="animable"></polygon><polygon points="148.08 33.08 141.41 33.42 141.75 40.1 148.58 38.56 148.08 33.08" style="fill: rgb(181, 181, 181); transform-origin: 144.995px 36.59px;" id="elwtj7bldplw" class="animable"></polygon><polygon points="413 242.99 406.23 248.75 411.34 251.21 413 242.99" style="fill: rgb(222, 222, 222); transform-origin: 409.615px 247.1px;" id="ell6tvlm18moq" class="animable"></polygon><polygon points="459.98 203.53 459.12 194.44 453.78 194.47 452.49 202.5 459.98 203.53" style="fill: rgb(38, 50, 56); transform-origin: 456.235px 198.985px;" id="el97y3gqyotzf" class="animable"></polygon><polygon points="416.2 278.95 409.53 279.29 409.87 285.96 416.7 284.43 416.2 278.95" style="fill: rgb(181, 181, 181); transform-origin: 413.115px 282.455px;" id="eluqquklvf5z" class="animable"></polygon><polygon points="160.08 376.32 167.37 371.25 162.53 368.3 160.08 376.32" style="fill: rgb(222, 222, 222); transform-origin: 163.725px 372.31px;" id="eli58r31baz5" class="animable"></polygon><polygon points="115.64 367.56 110.86 375.05 116.47 375.9 115.64 367.56" style="fill: rgb(222, 222, 222); transform-origin: 113.665px 371.73px;" id="ely9vibl5kuj" class="animable"></polygon><polygon points="133.48 411.58 140.15 411.88 140.45 405.21 133.51 406.07 133.48 411.58" style="fill: rgb(181, 181, 181); transform-origin: 136.965px 408.545px;" id="eld3wp8lpoiz6" class="animable"></polygon><polygon points="134.17 355.26 139.48 348.14 133.96 346.88 134.17 355.26" style="fill: rgb(222, 222, 222); transform-origin: 136.72px 351.07px;" id="ell7djaivbqm" class="animable"></polygon><polygon points="123.04 320.93 129.46 319.1 127.64 312.67 121.33 315.69 123.04 320.93" style="fill: rgb(181, 181, 181); transform-origin: 125.395px 316.8px;" id="elqpex0ojckq" class="animable"></polygon><polygon points="153.08 286.25 146.31 292 151.42 294.47 153.08 286.25" style="fill: rgb(222, 222, 222); transform-origin: 149.695px 290.36px;" id="el8btq9yd107v" class="animable"></polygon><polygon points="199.14 277.28 194.3 269.55 189.54 271.98 191.99 279.73 199.14 277.28" style="fill: #407BFF; transform-origin: 194.34px 274.64px;" id="el2dk2dn7qb6z" class="animable"></polygon><polygon points="156.28 322.2 149.61 322.55 149.96 329.22 156.78 327.69 156.28 322.2" style="fill: rgb(181, 181, 181); transform-origin: 153.195px 325.71px;" id="el8ee10vlurb3" class="animable"></polygon><polygon points="393.39 60.6 387.42 67.17 392.8 68.97 393.39 60.6" style="fill: rgb(222, 222, 222); transform-origin: 390.405px 64.785px;" id="eln168qdzjljm" class="animable"></polygon><polygon points="367.92 127.47 375.2 122.39 370.36 119.45 367.92 127.47" style="fill: rgb(222, 222, 222); transform-origin: 371.56px 123.46px;" id="ela9kayrqnnpw" class="animable"></polygon><polygon points="368.2 91.37 374.87 91.67 375.17 85 368.23 85.86 368.2 91.37" style="fill: rgb(181, 181, 181); transform-origin: 371.685px 88.335px;" id="el0es9e5dysb4m" class="animable"></polygon><polygon points="393.39 149.28 387.42 155.86 392.8 157.65 393.39 149.28" style="fill: rgb(222, 222, 222); transform-origin: 390.405px 153.465px;" id="ele54pg4k31i" class="animable"></polygon><polygon points="430.44 206.99 423.87 208.19 425.06 214.76 431.64 212.37 430.44 206.99" style="fill: rgb(181, 181, 181); transform-origin: 427.755px 210.875px;" id="el99n4bpjlsjf" class="animable"></polygon><polygon points="367.92 216.15 375.2 211.08 370.36 208.13 367.92 216.15" style="fill: rgb(222, 222, 222); transform-origin: 371.56px 212.14px;" id="elu7fqbszuql" class="animable"></polygon><polygon points="398.07 175.03 404.75 175.32 405.05 168.65 398.11 169.52 398.07 175.03" style="fill: rgb(181, 181, 181); transform-origin: 401.56px 171.985px;" id="el58ticbvxawn" class="animable"></polygon><polygon points="322.34 450.76 326.37 442.84 320.71 442.53 322.34 450.76" style="fill: rgb(222, 222, 222); transform-origin: 323.54px 446.645px;" id="elgttnupxep0b" class="animable"></polygon><polygon points="360.03 467.11 365.35 459.99 359.82 458.72 360.03 467.11" style="fill: rgb(222, 222, 222); transform-origin: 362.585px 462.915px;" id="elwoe2icmvdwo" class="animable"></polygon><polygon points="348.9 432.77 355.32 430.94 353.5 424.52 347.19 427.53 348.9 432.77" style="fill: rgb(181, 181, 181); transform-origin: 351.255px 428.645px;" id="el53ux3jfup34" class="animable"></polygon><polygon points="245.48 443.66 237.16 447.41 238.92 452.45 246.93 451.07 245.48 443.66" style="fill: #407BFF; transform-origin: 242.045px 448.055px;" id="elo82peuapcb" class="animable"></polygon><polygon points="382.14 434.05 375.47 434.39 375.82 441.07 382.64 439.54 382.14 434.05" style="fill: rgb(181, 181, 181); transform-origin: 379.055px 437.56px;" id="eltusdx5p77a" class="animable"></polygon><polygon points="126.86 447.17 131.72 439.73 126.12 438.82 126.86 447.17" style="fill: rgb(222, 222, 222); transform-origin: 128.92px 442.995px;" id="el6pp4rk3wh0w" class="animable"></polygon><polygon points="67.15 436.69 61.18 443.26 66.56 445.06 67.15 436.69" style="fill: rgb(222, 222, 222); transform-origin: 64.165px 440.875px;" id="elyx9ue851o6g" class="animable"></polygon><polygon points="46.24 426.88 38.47 431.66 40.86 436.44 48.63 434.05 46.24 426.88" style="fill: #407BFF; transform-origin: 43.55px 431.66px;" id="elqgxb7a48ew" class="animable"></polygon><polygon points="67.28 438.17 60.52 443.93 65.62 446.39 67.28 438.17" style="fill: rgb(222, 222, 222); transform-origin: 63.9px 442.28px;" id="el7db2am1idym" class="animable"></polygon><polygon points="83.93 427.96 87.96 420.04 82.3 419.73 83.93 427.96" style="fill: rgb(222, 222, 222); transform-origin: 85.13px 423.845px;" id="eln8vix4mac0f" class="animable"></polygon><polygon points="152.78 460.07 159.21 458.25 157.38 451.82 151.07 454.83 152.78 460.07" style="fill: rgb(181, 181, 181); transform-origin: 155.14px 455.945px;" id="elhgnopn8l3or" class="animable"></polygon><polygon points="270.25 436.39 265.47 443.88 271.07 444.74 270.25 436.39" style="fill: rgb(222, 222, 222); transform-origin: 268.27px 440.565px;" id="elu4qespy35k" class="animable"></polygon></g><defs>     <filter id="active" height="200%">         <feMorphology in="SourceAlpha" result="DILATED" operator="dilate" radius="2"></feMorphology>                <feFlood flood-color="#32DFEC" flood-opacity="1" result="PINK"></feFlood>        <feComposite in="PINK" in2="DILATED" operator="in" result="OUTLINE"></feComposite>        <feMerge>            <feMergeNode in="OUTLINE"></feMergeNode>            <feMergeNode in="SourceGraphic"></feMergeNode>        </feMerge>    </filter>    <filter id="hover" height="200%">        <feMorphology in="SourceAlpha" result="DILATED" operator="dilate" radius="2"></feMorphology>                <feFlood flood-color="#ff0000" flood-opacity="0.5" result="PINK"></feFlood>        <feComposite in="PINK" in2="DILATED" operator="in" result="OUTLINE"></feComposite>        <feMerge>            <feMergeNode in="OUTLINE"></feMergeNode>            <feMergeNode in="SourceGraphic"></feMergeNode>        </feMerge>            <feColorMatrix type="matrix" values="0   0   0   0   0                0   1   0   0   0                0   0   0   0   0                0   0   0   1   0 "></feColorMatrix>    </filter></defs></svg>